<svg id="visual" viewBox="0 0 960 540" width="960" height="540" xmlns="http://www.w3.org/2000/svg" xmlns:xlink="http://www.w3.org/1999/xlink" version="1.1"><path d="M0 217L22.8 241C45.7 265 91.3 313 137 299.5C182.7 286 228.3 211 274 197.8C319.7 184.7 365.3 233.3 411.2 236.8C457 240.3 503 198.7 548.8 193.5C594.7 188.3 640.3 219.7 686 234.2C731.7 248.7 777.3 246.3 823 262.7C868.7 279 914.3 314 937.2 331.5L960 349L960 0L937.2 0C914.3 0 868.7 0 823 0C777.3 0 731.7 0 686 0C640.3 0 594.7 0 548.8 0C503 0 457 0 411.2 0C365.3 0 319.7 0 274 0C228.3 0 182.7 0 137 0C91.3 0 45.7 0 22.8 0L0 0Z" fill="#080808" stroke-linecap="round" stroke-linejoin="miter"></path></svg>